<svg width="62" height="80" viewBox="0 0 62 80" fill="none" xmlns="http://www.w3.org/2000/svg">
<path d="M11.227 47.0735C11.227 47.0735 28.2586 59.4856 15.1759 79.2531C15.1759 79.2531 6.1859 59.6781 9.67391 48.9567L11.227 47.0735Z" fill="#E48432"/>
<path d="M9.88919 50.2956C9.88919 50.2956 21.0079 64.2805 5.85775 77.4838C5.85775 77.4838 2.9265 59.4593 8.19525 51.4842L9.88919 50.2956Z" fill="#E69E4F"/>
<path d="M7.11851 38.5862C5.30265 38.5862 3.48679 39.279 2.10138 40.6645C-0.669615 43.4354 -0.669615 47.9278 2.10138 50.6988C3.48679 52.0842 5.30265 52.7769 7.11851 52.7769C8.93437 52.7769 10.7502 52.0842 12.1356 50.6988C14.9066 47.9278 14.9066 43.4354 12.1356 40.6645C10.7502 39.279 8.93437 38.5862 7.11851 38.5862ZM7.11851 41.9637C8.11163 41.9637 9.04532 42.3504 9.74748 43.0525C10.4498 43.7547 10.8365 44.6885 10.8365 45.6817C10.8365 46.6746 10.4498 47.6083 9.74748 48.3106C9.04532 49.0128 8.11163 49.3995 7.11851 49.3995C6.12538 49.3995 5.1917 49.0128 4.48954 48.3106C3.78721 47.6083 3.40049 46.6746 3.40049 45.6817C3.40049 44.6885 3.78721 43.7547 4.48954 43.0525C5.1917 42.3504 6.12538 41.9637 7.11851 41.9637Z" fill="#84BF67"/>
<path d="M0.00170898 26.4989C0.00170898 26.4989 23.2065 16.8228 37.0054 42.0679C37.0054 42.0679 45.0107 59.1597 50.8688 61.6077C50.8688 61.6077 36.3012 67.5885 26.0415 56.4201C15.782 45.2517 23.9887 39.5024 0.00170898 26.4989Z" fill="#E57729"/>
<path d="M0 26.4987C0 26.4987 19.9096 11.1463 39.7725 31.9599C39.7725 31.9599 51.9286 46.3975 58.2207 47.2457C58.2207 47.2457 45.6973 56.7933 32.8968 48.6607C20.0961 40.5284 26.5352 32.8509 0 26.4987Z" fill="#E48432"/>
<path d="M0.000915527 26.4992C0.000915527 26.4992 15.2587 6.51698 39.8316 21.4804C39.8316 21.4804 55.3103 32.2798 61.6075 31.4708C61.6075 31.4708 51.9819 43.9342 37.5126 39.3919C23.0433 34.8495 27.276 25.7672 0.000915527 26.4992Z" fill="#E59442"/>
<path d="M60.795 15.3558C54.9217 17.7671 37.1753 11.3419 37.1753 11.3419C9.56701 3.2483 0.000854492 26.4987 0.000854492 26.4987C26.157 18.7322 24.4193 28.6006 39.5712 29.2432C54.7231 29.8857 60.795 15.3558 60.795 15.3558Z" fill="#E69E4F"/>
<path d="M55.8415 0.000121107C51.5196 3.29512 37.1188 3.80426 33.0605 3.88262C32.4285 3.89477 31.796 3.87299 31.1665 3.81405C0.226273 0.922657 0.00268555 26.498 0.00268555 26.498C23.2576 12.2263 24.1332 22.2084 38.9352 18.9075C53.7372 15.6066 55.8415 0.000121107 55.8415 0.000121107Z" fill="#E5A858"/>
</svg>
